# xmcd
#
# Track frame offsets: 
#        150
#        12277
#        27875
#        39835
#        53815
#        65160
#        78262
#        89662
#        101875
#        112672
#        123205
#        139355
#        151197
#        157740
#        183817
#        195260
#        206267
#        217992
#        230932
#        240897
#
# Disc length: 3367 seconds
#
# Revision: 3
# Processed by: cddbd v1.5.2PL0 Copyright (c) Steve Scherf et al.
# Submitted via: ExactAudioCopy v0.99pb5
#
DISCID=f60d2514
DTITLE=Various Artist - The Man Who Robbed The Bank At Santa Fe
DYEAR=2002
DGENRE=Country
TTITLE0=Hank Snow - The man who robbed the bank at Santa Fe
TTITLE1=Marty Robbins - Jimmy Martinez
TTITLE2=Dottie West - Reno
TTITLE3=Rex Allen - Dont go near the indians
TTITLE4=Marvin Rainwater - Half breed
TTITLE5=Bobby Barnett - The ballad of Geronimo
TTITLE6=Marvin Rainwater - The valley of the moon
TTITLE7=Benny Barnes - The fastest gun alive
TTITLE8=Hank Snow - The man behind the gun
TTITLE9=Johnny Cash - Bonanza!
TTITLE10=Lorne Greene - Ringo
TTITLE11=Marty Robbins - See the open range
TTITLE12=Marty Robbins - When payday rolls around
TTITLE13=Marty Robbins - Pride and the badge
TTITLE14=Johnny Western - The long tall shadow
TTITLE15=Jim Ed Brown - The mounties
TTITLE16=Hank Snow - The restless one
TTITLE17=Stu Phillips - The great El Tigre
TTITLE18=Jim Reeves - Partners
TTITLE19=Eddy Arnold - (Jim) I wore a tie today
EXTD=
EXTT0=
EXTT1=
EXTT2=
EXTT3=
EXTT4=
EXTT5=
EXTT6=
EXTT7=
EXTT8=
EXTT9=
EXTT10=
EXTT11=
EXTT12=
EXTT13=
EXTT14=
EXTT15=
EXTT16=
EXTT17=
EXTT18=
EXTT19=
PLAYORDER=
